<svg width="33" height="33" viewBox="0 0 33 33" fill="none" xmlns="http://www.w3.org/2000/svg">
<circle cx="16.5" cy="16.5" r="15.5" stroke="#4C65AD" stroke-width="2"/>
<path d="M11.4905 10.3L15.1705 9H17.1705V23H14.8705V11.46L12.0505 12.26L11.4905 10.3ZM21.2319 20.24C21.6452 20.24 21.9985 20.3867 22.2919 20.68C22.5852 20.9733 22.7319 21.3267 22.7319 21.74C22.7319 22.1533 22.5852 22.5067 22.2919 22.8C21.9985 23.0933 21.6452 23.24 21.2319 23.24C20.8185 23.24 20.4652 23.0933 20.1719 22.8C19.8785 22.5067 19.7319 22.1533 19.7319 21.74C19.7319 21.3267 19.8719 20.9733 20.1519 20.68C20.4452 20.3867 20.8052 20.24 21.2319 20.24Z" fill="#505050"/>
</svg>
