<svg width="33" height="33" viewBox="0 0 33 33" fill="none" xmlns="http://www.w3.org/2000/svg">
<circle cx="16.5" cy="16.5" r="15.5" stroke="#4C65AD" stroke-width="2"/>
<path d="M19.9982 23H10.7782V21.2L15.6582 16.22C16.8449 15.0333 17.4382 14.0067 17.4382 13.14C17.4382 12.4733 17.2382 11.9467 16.8382 11.56C16.4382 11.1733 15.9182 10.98 15.2782 10.98C14.1049 10.98 13.2382 11.56 12.6782 12.72L10.7382 11.58C11.1649 10.66 11.7782 9.96 12.5782 9.48C13.3782 8.98667 14.2715 8.74 15.2582 8.74C16.4982 8.74 17.5515 9.12667 18.4182 9.9C19.2982 10.6867 19.7382 11.74 19.7382 13.06C19.7382 14.4733 18.9449 15.9933 17.3582 17.62L14.1982 20.78H19.9982V23ZM23.3041 20.24C23.7175 20.24 24.0708 20.3867 24.3641 20.68C24.6575 20.9733 24.8041 21.3267 24.8041 21.74C24.8041 22.1533 24.6575 22.5067 24.3641 22.8C24.0708 23.0933 23.7175 23.24 23.3041 23.24C22.8908 23.24 22.5375 23.0933 22.2441 22.8C21.9508 22.5067 21.8041 22.1533 21.8041 21.74C21.8041 21.3267 21.9441 20.9733 22.2241 20.68C22.5175 20.3867 22.8775 20.24 23.3041 20.24Z" fill="#505050"/>
</svg>
