<svg width="33" height="33" viewBox="0 0 33 33" fill="none" xmlns="http://www.w3.org/2000/svg">
<circle cx="16.5" cy="16.5" r="15.5" stroke="#4C65AD" stroke-width="2"/>
<path d="M19.7661 10.96L16.9261 14.72C17.9661 14.96 18.7928 15.44 19.4061 16.16C20.0328 16.8667 20.3461 17.7333 20.3461 18.76C20.3461 20.16 19.8728 21.26 18.9261 22.06C17.9928 22.86 16.8328 23.26 15.4461 23.26C14.3528 23.26 13.3861 23.0133 12.5461 22.52C11.7061 22.0133 11.1061 21.2933 10.7461 20.36L12.7061 19.22C13.1194 20.42 14.0328 21.02 15.4461 21.02C16.2461 21.02 16.8794 20.82 17.3461 20.42C17.8128 20.0067 18.0461 19.4533 18.0461 18.76C18.0461 18.0667 17.8128 17.52 17.3461 17.12C16.8794 16.72 16.2461 16.52 15.4461 16.52H14.9261L14.0061 15.14L17.0261 11.16H11.1661V9H19.7661V10.96ZM23.2163 20.24C23.6296 20.24 23.9829 20.3867 24.2763 20.68C24.5696 20.9733 24.7163 21.3267 24.7163 21.74C24.7163 22.1533 24.5696 22.5067 24.2763 22.8C23.9829 23.0933 23.6296 23.24 23.2163 23.24C22.8029 23.24 22.4496 23.0933 22.1563 22.8C21.8629 22.5067 21.7163 22.1533 21.7163 21.74C21.7163 21.3267 21.8563 20.9733 22.1363 20.68C22.4296 20.3867 22.7896 20.24 23.2163 20.24Z" fill="#505050"/>
</svg>
