<svg width="24" height="24" viewBox="0 0 24 24" fill="none" xmlns="http://www.w3.org/2000/svg">
<path d="M7.55927 7.27301C6.85229 7.75441 6.67095 8.71536 7.15419 9.41934C7.63743 10.1233 8.60268 10.3037 9.30966 9.8225C9.86568 9.44405 11.168 8.55743 11.0766 6.78502C11.0187 5.72421 10.0578 4.20959 9.26189 3.12571C8.09772 1.53985 7.09443 0.584667 6.28613 0.288579C5.53139 0.00875695 4.74212 0.00278585 3.93857 0.271283C2.27421 0.829692 1.06579 1.83882 0.444215 3.18954C-0.161027 4.50444 -0.147586 6.01556 0.483296 7.56045C1.97335 11.2004 4.05933 14.3872 6.69721 17.0458C9.35329 19.6585 12.5534 21.7356 16.2103 23.2202C17.0016 23.5408 17.7845 23.7012 18.537 23.7012C19.2586 23.7012 19.9524 23.5537 20.5988 23.2587C21.9552 22.6395 22.9684 21.4364 23.5298 19.7771C23.7987 18.9788 23.7927 18.1933 23.5139 17.4469C23.2145 16.6362 22.2551 15.6374 20.6626 14.4782C19.574 13.6856 18.0529 12.7288 16.9834 12.671C15.2072 12.582 14.3176 13.8765 13.9376 14.4302C13.4541 15.1342 13.6351 16.0951 14.342 16.5767C15.0492 17.0583 16.014 16.878 16.4977 16.174C16.6664 15.9283 16.7628 15.8167 16.818 15.7679C17.6885 16.0457 20.1709 17.8618 20.6178 18.5577C20.6287 18.6022 20.6312 18.6699 20.5899 18.7933C20.3942 19.3717 20.0127 20.1288 19.3066 20.4512C18.6451 20.7526 17.8935 20.5677 17.3802 20.36C14.1034 19.0296 11.2426 17.1755 8.89031 14.8618C6.5535 12.5064 4.69145 9.65778 3.35628 6.39607C3.14702 5.88378 2.96113 5.13491 3.26406 4.47685C3.58767 3.77369 4.3482 3.39359 4.92718 3.19922C5.05084 3.15804 5.11887 3.16031 5.16601 3.17163C5.86513 3.61741 7.68789 6.08783 7.96704 6.95489C7.91783 7.00904 7.80596 7.1052 7.55927 7.27301Z" fill="#505050"/>
</svg>
