<svg width="20" height="20" viewBox="0 0 20 20" fill="none" xmlns="http://www.w3.org/2000/svg">
<path d="M9.99957 0C4.59501 0 0.198242 4.39694 0.198242 9.80142C0.198242 11.9166 1.05677 13.8158 1.42596 14.5342C1.59785 14.8688 2.00854 15.0005 2.34296 14.8287C2.67747 14.6568 2.80931 14.2462 2.63743 13.9117C2.31363 13.2815 1.56035 11.6193 1.56035 9.80133C1.56026 5.14796 5.34611 1.36201 9.99957 1.36201C14.6535 1.36201 18.4396 5.14796 18.4396 9.80142C18.4396 14.4551 14.6535 18.241 9.99957 18.241C8.17956 18.241 6.73337 17.6108 6.19601 17.3398C6.03665 17.2594 5.85205 17.2448 5.68208 17.2992L1.39246 18.67C1.03425 18.7845 0.836573 19.1677 0.951073 19.526C1.04351 19.8154 1.31137 19.9999 1.59957 19.9999C1.66831 19.9999 1.73814 19.9895 1.80705 19.9674L5.8378 18.6793C6.68107 19.0707 8.1653 19.603 9.99957 19.603C15.4044 19.603 19.8016 15.2061 19.8016 9.80142C19.8016 4.39694 15.4044 0 9.99957 0Z" fill="#00DB3D"/>
</svg>
